<svg xmlns="http://www.w3.org/2000/svg" width="1200" height="820" viewBox="0 0 1200 820" role="img" aria-label="Japanese Vocab preview placeholder">
  <rect width="1200" height="820" fill="#f7f7f7"/>
  <rect x="100" y="54" width="1000" height="712" rx="18" fill="#ffffff" stroke="#dedede"/>
  <rect x="100" y="54" width="1000" height="68" rx="18" fill="#ffffff" stroke="#dedede"/>
  <rect x="140" y="78" width="38" height="28" rx="8" fill="#171717"/>
  <rect x="936" y="78" width="42" height="28" rx="14" fill="#f3f3f3" stroke="#dedede"/>
  <rect x="994" y="78" width="42" height="28" rx="8" fill="#f3f3f3" stroke="#dedede"/>
  <rect x="250" y="184" width="700" height="188" rx="12" fill="#fafafa" stroke="#e1e1e1"/>
  <text x="600" y="285" text-anchor="middle" fill="#171717" font-family="Inter, Arial, sans-serif" font-size="68" font-weight="500">学ぶ</text>
  <text x="600" y="326" text-anchor="middle" fill="#707070" font-family="Inter, Arial, sans-serif" font-size="24">まなぶ</text>
  <rect x="278" y="418" width="644" height="56" rx="10" fill="#f3f3f3" stroke="#dedede"/>
  <rect x="278" y="494" width="644" height="56" rx="10" fill="#f0f8f3" stroke="#81b29a"/>
  <rect x="278" y="570" width="644" height="56" rx="10" fill="#fff1f1" stroke="#d66b6b"/>
  <circle cx="852" cy="522" r="12" fill="#0aa36b"/>
  <circle cx="852" cy="598" r="12" fill="#d66b6b"/>
  <rect x="420" y="668" width="360" height="46" rx="10" fill="#171717"/>
  <text x="600" y="698" text-anchor="middle" fill="#fafafa" font-family="Inter, Arial, sans-serif" font-size="18" font-weight="700">Selanjutnya</text>
  <rect x="140" y="148" width="72" height="10" rx="5" fill="#0aa36b"/>
  <rect x="140" y="168" width="130" height="10" rx="5" fill="#8a8a8a"/>
  <text x="140" y="708" fill="#171717" font-family="Inter, Arial, sans-serif" font-size="36" font-weight="700">Japanese Vocab</text>
  <text x="140" y="745" fill="#707070" font-family="Inter, Arial, sans-serif" font-size="22">JLPT vocabulary trainer for Indonesian learners</text>
</svg>
