<svg xmlns="http://www.w3.org/2000/svg" width="1200" height="820" viewBox="0 0 1200 820" role="img" aria-label="Mocktest preview placeholder">
  <rect width="1200" height="820" fill="#f7f7f7"/>
  <rect x="66" y="58" width="1068" height="704" rx="18" fill="#ffffff" stroke="#dedede"/>
  <rect x="66" y="58" width="1068" height="74" rx="18" fill="#ffffff" stroke="#dedede"/>
  <circle cx="116" cy="95" r="18" fill="#171717"/>
  <rect x="150" y="82" width="142" height="16" rx="8" fill="#171717"/>
  <rect x="150" y="106" width="98" height="10" rx="5" fill="#8a8a8a"/>
  <rect x="818" y="78" width="84" height="34" rx="8" fill="#f3f3f3" stroke="#dedede"/>
  <rect x="916" y="78" width="84" height="34" rx="8" fill="#f3f3f3" stroke="#dedede"/>
  <rect x="1014" y="78" width="72" height="34" rx="8" fill="#171717"/>
  <rect x="130" y="190" width="468" height="118" rx="10" fill="#fafafa" stroke="#e1e1e1"/>
  <rect x="164" y="224" width="188" height="20" rx="10" fill="#171717"/>
  <rect x="164" y="260" width="330" height="14" rx="7" fill="#8a8a8a"/>
  <rect x="130" y="344" width="448" height="216" rx="10" fill="#ffffff" stroke="#dedede"/>
  <rect x="164" y="380" width="76" height="18" rx="9" fill="#171717"/>
  <rect x="164" y="426" width="348" height="22" rx="11" fill="#f3f3f3"/>
  <rect x="164" y="468" width="312" height="22" rx="11" fill="#f3f3f3"/>
  <rect x="164" y="510" width="256" height="22" rx="11" fill="#f3f3f3"/>
  <rect x="646" y="190" width="424" height="370" rx="10" fill="#fafafa" stroke="#e1e1e1"/>
  <path d="M704 476 C760 386 820 420 858 350 C902 270 984 312 1012 230" fill="none" stroke="#171717" stroke-width="12" stroke-linecap="round"/>
  <rect x="704" y="608" width="134" height="42" rx="9" fill="#171717"/>
  <rect x="858" y="608" width="112" height="42" rx="9" fill="#ffffff" stroke="#dedede"/>
  <text x="130" y="675" fill="#171717" font-family="Inter, Arial, sans-serif" font-size="36" font-weight="700">Mocktest</text>
  <text x="130" y="714" fill="#707070" font-family="Inter, Arial, sans-serif" font-size="22">JFT mockup and progress tracking</text>
</svg>
